<svg version="1.1" id="Layer_1" xmlns="http://www.w3.org/2000/svg" xmlns:xlink="http://www.w3.org/1999/xlink" x="0px" y="0px"
	 width="100%" viewBox="0 0 602 602" enable-background="new 0 0 602 602" xml:space="preserve">
<path fill="#000000" opacity="1.000000" stroke="none" 
	d="
M351.000000,603.000000 
	C234.000000,603.000000 117.500000,603.000000 1.000000,603.000000 
	C1.000000,402.333344 1.000000,201.666672 1.000000,1.000000 
	C201.666672,1.000000 402.333344,1.000000 603.000000,1.000000 
	C603.000000,201.666672 603.000000,402.333344 603.000000,603.000000 
	C519.166687,603.000000 435.333344,603.000000 351.000000,603.000000 
M93.013992,207.924576 
	C93.063560,215.281906 93.113129,222.639252 93.009209,230.923141 
	C93.063843,238.613449 93.118477,246.303741 93.014793,254.920242 
	C93.064751,266.945435 93.114708,278.970612 93.012039,291.922607 
	C93.063515,303.279663 93.114990,314.636688 93.011421,326.920471 
	C93.064781,342.277924 93.118141,357.635376 93.017670,373.919800 
	C93.065903,391.944122 93.114143,409.968475 93.011017,428.920166 
	C93.011017,439.830017 93.011017,450.739868 93.011017,462.126953 
	C100.970604,462.126953 108.358116,462.126953 116.164879,462.126953 
	C116.164879,467.738129 116.164879,472.864838 116.012733,478.898071 
	C116.012733,481.504028 116.012733,484.109955 116.012733,487.177399 
	C125.290237,487.177399 134.027603,487.177399 143.091568,487.177399 
	C143.091568,495.599854 143.091568,503.537262 143.091568,511.842133 
	C144.557632,511.842133 145.680145,511.842102 146.802658,511.842102 
	C249.950943,511.842133 353.099243,511.842133 456.247528,511.842010 
	C456.914062,511.842010 457.583191,511.802002 458.246704,511.846130 
	C460.995056,512.028870 462.114105,510.858063 462.044891,508.021179 
	C461.898621,502.025879 462.146851,496.019562 461.940826,490.027802 
	C461.855499,487.546295 462.783997,486.748108 465.854431,486.970001 
	C467.566803,486.924683 469.279175,486.879364 471.917206,486.985626 
	C476.293518,486.993835 480.675293,487.119965 485.041962,486.918274 
	C486.000641,486.873993 486.905548,485.663940 487.970459,484.063416 
	C487.970459,477.492218 487.970459,470.921021 487.970459,463.827393 
	C496.217834,463.827393 503.906036,463.827393 511.819855,463.827393 
	C511.819855,457.531311 511.819855,451.764771 511.960968,445.129608 
	C511.913818,443.080475 511.866699,441.031342 511.949554,438.502747 
	C511.949554,438.502747 511.819489,438.023285 511.960968,437.092590 
	C511.906982,429.060944 511.852966,421.029266 511.944885,412.070251 
	C511.889008,401.377625 511.833130,390.684967 511.928040,379.066925 
	C511.870972,368.041840 511.813904,357.016785 511.913666,345.067230 
	C511.921021,336.272827 511.951965,327.478394 511.931152,318.684052 
	C511.873077,294.132263 511.793488,269.580566 511.876740,244.181183 
	C511.839081,242.460907 511.801422,240.740646 511.938171,238.529831 
	C511.889801,238.363174 511.841400,238.196518 511.931061,237.097855 
	C511.897156,220.064896 511.863220,203.031952 511.972504,185.513855 
	C511.930756,185.350616 511.888977,185.187363 512.001953,184.131271 
	C511.950256,181.418259 511.898590,178.705261 511.988403,175.065384 
	C511.988403,164.052719 511.988403,153.040039 511.988403,141.722397 
	C503.253967,141.722397 495.196259,141.722397 486.833466,141.722397 
	C486.833466,138.934418 486.833466,136.463959 486.978607,133.173859 
	C486.978607,127.878563 486.978607,122.583275 486.978607,116.875435 
	C478.403992,116.875435 470.329102,116.875435 461.884674,116.875435 
	C461.884674,108.379173 461.884674,100.300316 461.884674,92.243706 
	C355.440582,92.243706 249.378052,92.243706 142.955399,92.243706 
	C142.955399,100.621468 142.955399,108.753059 142.028503,116.985107 
	C133.471909,116.985107 124.915306,116.985107 115.836662,116.985107 
	C115.836662,125.602859 115.836662,133.769440 115.836662,142.162354 
	C108.541069,142.162354 101.772263,142.162354 94.135674,142.049240 
	C93.756958,142.818146 93.049927,143.586624 93.048874,144.356033 
	C93.033577,155.568573 93.112679,166.781235 93.012680,178.920334 
	C93.063683,188.279526 93.114685,197.638733 93.013992,207.924576 
z"/>
<path fill="#8D8CD0" opacity="1.000000" stroke="none" 
	d="
M465.007355,486.834534 
	C462.783997,486.748108 461.855499,487.546295 461.940826,490.027802 
	C462.146851,496.019562 461.898621,502.025879 462.044891,508.021179 
	C462.114105,510.858063 460.995056,512.028870 458.246704,511.846130 
	C457.583191,511.802002 456.914062,511.842010 456.247528,511.842010 
	C353.099243,511.842133 249.950943,511.842133 146.802658,511.842102 
	C145.680145,511.842102 144.557632,511.842133 143.091568,511.842133 
	C143.091568,503.537262 143.091568,495.599854 143.091568,487.177399 
	C134.027603,487.177399 125.290237,487.177399 116.012733,487.177399 
	C116.012733,484.109955 116.012733,481.504028 116.458038,478.435303 
	C121.715599,473.174500 127.811600,473.902649 133.791779,473.981934 
	C139.934204,474.063324 146.082031,474.128021 152.221008,473.961029 
	C157.496780,473.817535 162.763382,473.337158 168.061676,473.464966 
	C168.095337,475.254791 168.267487,476.609619 168.077545,477.911621 
	C167.390732,482.619720 169.116135,484.382355 174.041534,484.098877 
	C181.003708,483.698303 188.007050,484.013275 195.225174,484.247864 
	C196.641525,484.325073 197.825516,484.176849 199.477478,484.039124 
	C276.420868,484.030426 352.896271,484.011444 429.371674,483.990051 
	C430.870667,483.989655 432.476593,484.274414 433.823730,483.814392 
	C434.501434,483.582947 434.709015,481.974945 435.549255,480.995728 
	C443.730133,481.335358 451.489410,481.715027 459.252594,481.980103 
	C462.535431,482.092194 465.372101,482.504333 465.007355,486.834534 
z"/>
<path fill="#D6D5FD" opacity="1.000000" stroke="none" 
	d="
M142.955399,116.884659 
	C142.955399,108.753059 142.955399,100.621468 142.955399,92.243706 
	C249.378052,92.243706 355.440582,92.243706 461.884674,92.243706 
	C461.884674,100.300316 461.884674,108.379173 461.884674,116.875435 
	C470.329102,116.875435 478.403992,116.875435 486.978607,116.875435 
	C486.978607,122.583275 486.978607,127.878563 486.532227,133.573822 
	C480.828003,131.126312 475.190613,130.588028 469.321564,130.955109 
	C465.511108,131.193420 461.639893,131.324066 457.855438,130.930573 
	C450.535461,130.169479 443.257538,129.003937 435.926605,127.551231 
	C435.877899,126.102356 435.732513,125.088974 435.874146,124.117439 
	C436.551178,119.472916 434.898254,117.500298 429.949341,117.955490 
	C425.347382,118.378761 420.678711,118.077164 415.887268,117.881653 
	C415.152863,117.969589 414.570618,118.270569 413.667084,118.691788 
	C412.916687,118.970711 412.487549,119.129387 411.590668,119.222397 
	C410.291565,119.126228 409.460205,119.069061 408.628845,119.068993 
	C337.888489,119.063583 267.148132,119.060959 196.407776,119.072571 
	C194.915298,119.072815 193.422836,119.241257 191.477997,119.220177 
	C183.401474,119.414810 175.777328,119.720490 167.674988,120.018921 
	C160.700516,120.007111 154.193207,120.206352 147.715637,119.855843 
	C146.080093,119.767334 144.539581,117.922440 142.955399,116.884659 
z"/>
<path fill="#9694D7" opacity="1.000000" stroke="none" 
	d="
M168.034042,473.005768 
	C162.763382,473.337158 157.496780,473.817535 152.221008,473.961029 
	C146.082031,474.128021 139.934204,474.063324 133.791779,473.981934 
	C127.811600,473.902649 121.715599,473.174500 116.534111,477.982056 
	C116.164879,472.864838 116.164879,467.738129 116.164879,462.126953 
	C108.358116,462.126953 100.970604,462.126953 93.011017,462.126953 
	C93.011017,450.739868 93.011017,439.830017 93.442581,428.396851 
	C96.044380,426.916595 98.204857,425.177002 100.386696,425.149780 
	C106.890121,425.068634 113.401939,425.659546 119.963234,426.447083 
	C120.030365,428.237976 120.223778,429.596802 120.027138,430.896637 
	C119.296997,435.722961 121.250687,437.336670 126.069122,436.983643 
	C131.700851,436.571014 137.383072,436.847748 143.057922,437.305603 
	C143.329910,444.368408 143.701660,450.949463 143.793152,457.534393 
	C143.834457,460.507141 145.287781,461.111908 147.829758,461.068939 
	C154.923874,460.949036 162.020065,460.952942 169.174164,461.200684 
	C169.250916,461.691589 169.268936,461.889771 169.039612,462.409302 
	C168.641800,465.166199 168.491287,467.601715 168.279877,470.405426 
	C168.157333,471.517639 168.095688,472.261719 168.034042,473.005768 
z"/>
<path fill="#CECCF9" opacity="1.000000" stroke="none" 
	d="
M435.962189,128.006012 
	C443.257538,129.003937 450.535461,130.169479 457.855438,130.930573 
	C461.639893,131.324066 465.511108,131.193420 469.321564,130.955109 
	C475.190613,130.588028 480.828003,131.126312 486.459656,133.983658 
	C486.833466,136.463959 486.833466,138.934418 486.833466,141.722397 
	C495.196259,141.722397 503.253967,141.722397 511.988403,141.722397 
	C511.988403,153.040039 511.988403,164.052719 511.550018,175.548645 
	C502.151611,177.454575 493.118347,179.503983 485.045715,172.561279 
	C484.933014,169.685455 485.513519,166.979538 481.453003,167.132965 
	C474.642426,167.390305 467.820862,167.358398 461.025879,166.951813 
	C461.049988,159.643295 461.186371,152.826324 460.941498,146.023102 
	C460.892242,144.655304 459.392944,142.179565 458.565521,142.180954 
	C451.032196,142.193604 443.499634,142.642136 435.937714,142.692230 
	C435.935028,142.241425 435.961426,142.061646 435.922241,141.428253 
	C435.891876,136.651779 435.927032,132.328903 435.962189,128.006012 
z"/>
<path fill="#9594D6" opacity="1.000000" stroke="none" 
	d="
M465.430908,486.902283 
	C465.372101,482.504333 462.535431,482.092194 459.252594,481.980103 
	C451.489410,481.715027 443.730133,481.335358 435.508179,480.530457 
	C435.333374,474.068634 435.619720,468.078369 435.942566,461.850220 
	C435.979034,461.612335 435.988281,461.132965 436.456909,461.106995 
	C443.526489,461.065430 450.130249,460.930664 456.727203,461.086029 
	C459.874481,461.160126 461.259338,460.178741 461.093475,456.867950 
	C460.929047,453.584900 461.198425,450.280182 461.688293,446.984497 
	C471.313995,446.656006 480.526794,446.228333 489.744568,446.031525 
	C497.099884,445.874512 504.461212,445.998840 511.819855,445.998230 
	C511.819855,451.764771 511.819855,457.531311 511.819855,463.827393 
	C503.906036,463.827393 496.217834,463.827393 487.970459,463.827393 
	C487.970459,470.921021 487.970459,477.492218 487.505371,484.529755 
	C483.456451,484.434082 479.857147,483.954376 476.293488,483.284851 
	C473.263580,482.715698 470.999664,483.017365 470.991547,486.834045 
	C469.279175,486.879364 467.566803,486.924683 465.430908,486.902283 
z"/>
<path fill="#D0CFFA" opacity="1.000000" stroke="none" 
	d="
M142.491943,116.934883 
	C144.539581,117.922440 146.080093,119.767334 147.715637,119.855843 
	C154.193207,120.206352 160.700516,120.007111 167.679230,120.484573 
	C168.112457,127.974770 168.063278,134.992050 167.597260,142.067902 
	C161.789566,142.276001 156.354019,142.926895 151.018845,142.451462 
	C143.944000,141.820999 143.387146,141.921997 142.707809,148.955170 
	C138.233002,147.936264 134.171585,146.445816 130.019287,146.122498 
	C123.802109,145.638397 117.519745,146.048431 111.267654,145.936096 
	C107.003670,145.859497 102.710564,145.127014 98.493668,145.468384 
	C95.443802,145.715286 95.079552,144.408310 95.003448,142.162354 
	C101.772263,142.162354 108.541069,142.162354 115.836662,142.162354 
	C115.836662,133.769440 115.836662,125.602859 115.836662,116.985107 
	C124.915306,116.985107 133.471909,116.985107 142.491943,116.934883 
z"/>
<path fill="#CCCBF7" opacity="1.000000" stroke="none" 
	d="
M94.569565,142.105804 
	C95.079552,144.408310 95.443802,145.715286 98.493668,145.468384 
	C102.710564,145.127014 107.003670,145.859497 111.267654,145.936096 
	C117.519745,146.048431 123.802109,145.638397 130.019287,146.122498 
	C134.171585,146.445816 138.233002,147.936264 142.738342,149.421936 
	C143.098114,155.808456 143.054642,161.677460 143.004013,167.514984 
	C142.996857,167.483536 143.060593,167.473602 142.617523,167.590637 
	C139.451965,167.619110 136.729477,167.530533 133.831818,167.125671 
	C129.002396,166.099945 124.218124,164.085373 120.060120,168.618423 
	C120.006760,173.043060 119.934418,177.015244 119.473892,180.975250 
	C115.067749,180.308929 111.067589,179.496246 107.027130,179.042480 
	C102.426613,178.525787 97.790115,178.329453 93.169258,177.993866 
	C93.112679,166.781235 93.033577,155.568573 93.048874,144.356033 
	C93.049927,143.586624 93.756958,142.818146 94.569565,142.105804 
z"/>
<path fill="#9F9EDC" opacity="1.000000" stroke="none" 
	d="
M119.910477,425.987976 
	C113.401939,425.659546 106.890121,425.068634 100.386696,425.149780 
	C98.204857,425.177002 96.044380,426.916595 93.518265,427.933167 
	C93.114143,409.968475 93.065903,391.944122 93.465981,373.527863 
	C102.615562,376.251770 111.298302,375.962158 119.986664,373.462708 
	C120.049156,379.972260 120.091438,386.013184 120.103928,392.518433 
	C120.019577,403.984528 119.965027,414.986237 119.910477,425.987976 
z"/>
<path fill="#A8A7E2" opacity="1.000000" stroke="none" 
	d="
M119.966446,372.994110 
	C111.298302,375.962158 102.615562,376.251770 93.542892,373.064392 
	C93.118141,357.635376 93.064781,342.277924 93.484406,326.529175 
	C102.549538,326.752075 111.141693,327.366272 119.811172,328.437134 
	C119.962997,332.580841 120.037498,336.267914 120.084549,340.425659 
	C120.026886,351.595581 119.996666,362.294830 119.966446,372.994110 
z"/>
<path fill="#BEBDED" opacity="1.000000" stroke="none" 
	d="
M511.763763,239.020386 
	C511.801422,240.740646 511.839081,242.460907 511.574371,244.947662 
	C511.155396,252.461502 511.038818,259.208893 510.530914,265.969421 
	C504.227203,264.988373 498.317993,263.974426 492.400787,263.009583 
	C489.980408,262.614899 487.542633,262.326569 485.052032,261.525299 
	C484.906799,254.448334 484.822296,247.835922 484.805725,240.745361 
	C484.931396,232.175507 484.989136,224.083832 485.410645,216.049805 
	C489.314423,217.071640 492.814880,218.238983 496.406464,218.937836 
	C499.459137,219.531860 502.742310,219.141953 505.700012,219.978027 
	C510.671692,221.383392 510.972015,221.395691 510.989471,215.945267 
	C511.021484,205.967514 511.004242,195.989594 511.212952,186.007263 
	C511.418365,186.002792 511.829285,185.998993 511.829285,185.998993 
	C511.863220,203.031952 511.897156,220.064896 511.720184,237.652405 
	C511.463989,238.308990 511.353516,238.444611 511.385529,238.506744 
	C511.481750,238.693329 511.633606,238.851257 511.763763,239.020386 
z"/>
<path fill="#9B99DA" opacity="1.000000" stroke="none" 
	d="
M511.890411,445.563904 
	C504.461212,445.998840 497.099884,445.874512 489.744568,446.031525 
	C480.526794,446.228333 471.313995,446.656006 461.612183,446.529175 
	C461.084106,442.363190 461.042877,438.652008 461.005371,434.971863 
	C461.009155,435.002899 460.946655,435.001648 461.419922,434.999268 
	C468.176453,435.021332 474.463928,434.916626 480.741211,435.123291 
	C483.995056,435.230408 485.086090,434.045746 485.017609,430.821716 
	C484.870148,423.882355 485.042908,416.936249 485.452087,410.087463 
	C487.287201,410.785980 488.725311,411.817261 490.227539,411.921173 
	C497.408478,412.417816 504.606812,412.663025 511.798981,412.997620 
	C511.852966,421.029266 511.906982,429.060944 511.765320,437.654053 
	C511.404602,438.534698 511.487885,438.790283 511.819580,438.982208 
	C511.866699,441.031342 511.913818,443.080475 511.890411,445.563904 
z"/>
<path fill="#C6C5F4" opacity="1.000000" stroke="none" 
	d="
M511.007538,186.011749 
	C511.004242,195.989594 511.021484,205.967514 510.989471,215.945267 
	C510.972015,221.395691 510.671692,221.383392 505.700012,219.978027 
	C502.742310,219.141953 499.459137,219.531860 496.406464,218.937836 
	C492.814880,218.238983 489.314423,217.071640 485.388000,215.582382 
	C484.932587,207.350906 484.863647,199.644531 484.843353,191.476318 
	C484.956757,185.006073 485.021545,178.997650 485.086304,172.989227 
	C493.118347,179.503983 502.151611,177.454575 511.479248,176.012085 
	C511.898590,178.705261 511.950256,181.418259 511.740906,184.701370 
	C511.256348,185.476105 511.098938,185.722870 511.007538,186.011749 
z"/>
<path fill="#AEADE5" opacity="1.000000" stroke="none" 
	d="
M510.922241,265.956268 
	C511.038818,259.208893 511.155396,252.461502 511.497192,245.371475 
	C511.793488,269.580566 511.873077,294.132263 511.931152,318.684052 
	C511.951965,327.478394 511.921021,336.272827 511.443237,345.529358 
	C505.970032,344.994354 500.971375,343.976227 495.963226,343.007019 
	C492.327057,342.303345 488.678345,341.664368 485.001282,340.757996 
	C484.967285,340.519440 484.916992,340.040222 484.924866,339.740173 
	C484.908936,339.241760 484.885132,339.043396 484.886230,338.386963 
	C484.902374,331.323090 484.893616,324.717255 484.916321,317.640808 
	C484.974121,312.778595 485.000427,308.387054 485.409821,304.052429 
	C489.157532,304.739563 492.502808,305.521149 495.892609,305.954132 
	C498.829346,306.329254 501.906342,305.910095 504.761353,306.552917 
	C509.593567,307.640808 510.943085,306.896362 510.962830,301.773376 
	C511.008850,289.834595 510.942841,277.895325 510.922241,265.956268 
z"/>
<path fill="#B1AFE7" opacity="1.000000" stroke="none" 
	d="
M119.733841,327.980469 
	C111.141693,327.366272 102.549538,326.752075 93.561928,326.065796 
	C93.114990,314.636688 93.063515,303.279663 93.431641,291.373291 
	C98.452705,286.735138 104.145943,287.516846 109.303658,288.312439 
	C113.497940,288.959442 116.884689,288.978638 120.000473,286.467407 
	C120.038803,297.319641 120.061920,307.703278 120.058022,318.534637 
	C119.931953,321.981720 119.832893,324.981110 119.733841,327.980469 
z"/>
<path fill="#A8A7E2" opacity="1.000000" stroke="none" 
	d="
M485.035248,340.996521 
	C488.678345,341.664368 492.327057,342.303345 495.963226,343.007019 
	C500.971375,343.976227 505.970032,344.994354 511.364807,345.991608 
	C511.813904,357.016785 511.870972,368.041840 511.449738,379.529480 
	C506.810272,379.328033 502.651947,378.645752 498.487213,378.005005 
	C494.005035,377.315399 489.516846,376.664734 485.014648,375.528931 
	C485.010437,363.706024 485.022827,352.351288 485.035248,340.996521 
z"/>
<path fill="#A2A0DE" opacity="1.000000" stroke="none" 
	d="
M485.031281,375.997070 
	C489.516846,376.664734 494.005035,377.315399 498.487213,378.005005 
	C502.651947,378.645752 506.810272,379.328033 511.374359,379.992188 
	C511.833130,390.684967 511.889008,401.377625 511.871948,412.533936 
	C504.606812,412.663025 497.408478,412.417816 490.227539,411.921173 
	C488.725311,411.817261 487.287201,410.785980 485.408081,409.621979 
	C484.959656,403.426117 484.922729,397.790375 484.910889,391.855255 
	C484.929688,391.356262 484.923401,391.156647 484.933319,390.493927 
	C484.976746,385.352875 485.003998,380.674988 485.031281,375.997070 
z"/>
<path fill="#B6B4EA" opacity="1.000000" stroke="none" 
	d="
M119.985245,285.998779 
	C116.884689,288.978638 113.497940,288.959442 109.303658,288.312439 
	C104.145943,287.516846 98.452705,286.735138 93.507950,290.909882 
	C93.114708,278.970612 93.064751,266.945435 93.452484,254.516953 
	C95.599281,254.669113 97.456573,255.962463 98.992210,255.654099 
	C106.188301,254.209000 113.045235,254.568436 119.676468,258.416870 
	C119.933670,260.414673 120.114258,262.072815 120.223480,264.211487 
	C120.096497,271.794250 120.040871,278.896515 119.985245,285.998779 
z"/>
<path fill="#BEBDED" opacity="1.000000" stroke="none" 
	d="
M119.599869,258.077240 
	C113.045235,254.568436 106.188301,254.209000 98.992210,255.654099 
	C97.456573,255.962463 95.599281,254.669113 93.531647,254.053864 
	C93.118477,246.303741 93.063843,238.613449 93.419418,230.379013 
	C96.345810,226.784103 99.540833,225.788345 103.491829,225.925400 
	C109.373352,226.129379 115.609398,228.767578 120.974777,224.457611 
	C120.708763,230.394623 120.430107,235.867096 120.123306,241.776901 
	C119.930069,247.501907 119.764969,252.789581 119.599869,258.077240 
z"/>
<path fill="#C3C1F4" opacity="1.000000" stroke="none" 
	d="
M93.090973,178.457092 
	C97.790115,178.329453 102.426613,178.525787 107.027130,179.042480 
	C111.067589,179.496246 115.067749,180.308929 119.557678,181.421173 
	C120.078247,185.139099 120.126846,188.398926 120.127533,192.136337 
	C120.056084,195.409683 120.032547,198.205444 119.660461,201.070602 
	C117.471008,202.417496 115.757721,204.513153 113.765999,204.823853 
	C106.951996,205.886795 100.040192,206.322784 93.165688,206.997925 
	C93.114685,197.638733 93.063683,188.279526 93.090973,178.457092 
z"/>
<path fill="#C2C1F1" opacity="1.000000" stroke="none" 
	d="
M93.089844,207.461243 
	C100.040192,206.322784 106.951996,205.886795 113.765999,204.823853 
	C115.757721,204.513153 117.471008,202.417496 119.667595,201.498047 
	C120.336220,209.235092 120.649170,216.614059 120.962128,223.993042 
	C115.609398,228.767578 109.373352,226.129379 103.491829,225.925400 
	C99.540833,225.788345 96.345810,226.784103 93.496155,229.915741 
	C93.113129,222.639252 93.063560,215.281906 93.089844,207.461243 
z"/>
<path fill="#8D8CD0" opacity="1.000000" stroke="none" 
	d="
M471.454376,486.909851 
	C470.999664,483.017365 473.263580,482.715698 476.293488,483.284851 
	C479.857147,483.954376 483.456451,484.434082 487.437775,484.993408 
	C486.905548,485.663940 486.000641,486.873993 485.041962,486.918274 
	C480.675293,487.119965 476.293518,486.993835 471.454376,486.909851 
z"/>
<path fill="#9594D6" opacity="1.000000" stroke="none" 
	d="
M511.850952,238.775116 
	C511.633606,238.851257 511.481750,238.693329 511.385529,238.506744 
	C511.353516,238.444611 511.463989,238.308990 511.651184,238.118423 
	C511.841400,238.196518 511.889801,238.363174 511.850952,238.775116 
z"/>
<path fill="#CECCF9" opacity="1.000000" stroke="none" 
	d="
M511.212952,186.007263 
	C511.098938,185.722870 511.256348,185.476105 511.663513,185.147781 
	C511.888977,185.187363 511.930756,185.350616 511.900879,185.756424 
	C511.829285,185.998993 511.418365,186.002792 511.212952,186.007263 
z"/>
<path fill="#9594D6" opacity="1.000000" stroke="none" 
	d="
M511.884552,438.742493 
	C511.487885,438.790283 511.404602,438.534698 511.694580,438.119385 
	C511.819489,438.023285 511.949554,438.502747 511.884552,438.742493 
z"/>
<path fill="#435EF6" opacity="1.000000" stroke="none" 
	d="
M435.906067,462.088074 
	C435.619720,468.078369 435.333374,474.068634 435.088135,480.524200 
	C434.709015,481.974945 434.501434,483.582947 433.823730,483.814392 
	C432.476593,484.274414 430.870667,483.989655 429.371674,483.990051 
	C352.896271,484.011444 276.420868,484.030426 199.254776,483.790527 
	C197.373657,483.695007 196.183228,483.858704 194.992798,484.022400 
	C188.007050,484.013275 181.003708,483.698303 174.041534,484.098877 
	C169.116135,484.382355 167.390732,482.619720 168.077545,477.911621 
	C168.267487,476.609619 168.095337,475.254791 168.061676,473.464966 
	C168.095688,472.261719 168.157333,471.517639 168.601196,470.266418 
	C169.084595,467.202179 169.185776,464.645081 169.286942,462.087982 
	C169.268936,461.889771 169.250916,461.691589 169.164429,461.205444 
	C169.095993,460.917542 169.108734,460.902435 169.564590,460.968384 
	C175.684952,461.060913 181.349472,461.087524 187.243378,461.337585 
	C188.646683,461.398407 189.820587,461.235809 191.463562,461.073486 
	C272.630463,461.100159 353.328308,461.126587 434.201233,461.361511 
	C434.886200,461.742737 435.396149,461.915405 435.906067,462.088074 
z"/>
<path fill="#5368EF" opacity="1.000000" stroke="none" 
	d="
M195.225174,484.247864 
	C196.183228,483.858704 197.373657,483.695007 198.786774,483.779968 
	C197.825516,484.176849 196.641525,484.325073 195.225174,484.247864 
z"/>
<path fill="#9D82F4" opacity="1.000000" stroke="none" 
	d="
M191.930374,119.331230 
	C193.422836,119.241257 194.915298,119.072815 196.407776,119.072571 
	C267.148132,119.060959 337.888489,119.063583 408.628845,119.068993 
	C409.460205,119.069061 410.291565,119.126228 411.574432,119.662003 
	C412.028229,127.322166 412.030548,134.477066 411.573059,141.746002 
	C410.282166,141.891830 409.451111,141.951462 408.620026,141.951508 
	C337.889282,141.956192 267.158539,141.958160 196.427795,141.943756 
	C194.939133,141.943451 193.450485,141.750488 191.968536,141.200928 
	C191.960281,133.613388 191.945328,126.472305 191.930374,119.331230 
z"/>
<path fill="#9C69EC" opacity="1.000000" stroke="none" 
	d="
M412.032867,141.631989 
	C412.030548,134.477066 412.028229,127.322166 412.042175,119.727661 
	C412.487549,119.129387 412.916687,118.970711 413.941528,118.765533 
	C415.037964,118.510925 415.538696,118.302811 416.039429,118.094696 
	C420.678711,118.077164 425.347382,118.378761 429.949341,117.955490 
	C434.898254,117.500298 436.551178,119.472916 435.874146,124.117439 
	C435.732513,125.088974 435.877899,126.102356 435.926605,127.551231 
	C435.927032,132.328903 435.891876,136.651779 435.454895,141.439148 
	C427.379669,141.813065 419.706268,141.722519 412.032867,141.631989 
z"/>
<path fill="#9C68EC" opacity="1.000000" stroke="none" 
	d="
M191.477997,119.220177 
	C191.945328,126.472305 191.960281,133.613388 191.526581,141.331390 
	C187.749664,142.159500 184.421402,142.410675 180.691513,142.503296 
	C179.162430,142.446823 178.034973,142.548889 176.495239,142.538940 
	C174.094269,142.453918 172.105560,142.480911 169.770447,142.372009 
	C168.937363,142.144974 168.450714,142.053818 167.976196,141.974762 
	C167.988327,141.986847 168.014084,142.009338 168.014099,142.009338 
	C168.063278,134.992050 168.112457,127.974770 168.157410,120.491829 
	C175.777328,119.720490 183.401474,119.414810 191.477997,119.220177 
z"/>
<path fill="#D0CFFA" opacity="1.000000" stroke="none" 
	d="
M415.887268,117.881653 
	C415.538696,118.302811 415.037964,118.510925 414.262787,118.645294 
	C414.570618,118.270569 415.152863,117.969589 415.887268,117.881653 
z"/>
<path fill="#445FF6" opacity="1.000000" stroke="none" 
	d="
M119.963234,426.447083 
	C119.965027,414.986237 120.019577,403.984528 120.557831,392.485291 
	C128.409683,391.942047 135.777863,391.896301 143.245178,392.320312 
	C143.305969,406.712402 143.267639,420.634705 143.174545,434.933594 
	C143.094315,435.815277 143.068863,436.320343 143.043396,436.825439 
	C137.383072,436.847748 131.700851,436.571014 126.069122,436.983643 
	C121.250687,437.336670 119.296997,435.722961 120.027138,430.896637 
	C120.223778,429.596802 120.030365,428.237976 119.963234,426.447083 
z"/>
<path fill="#4760F5" opacity="1.000000" stroke="none" 
	d="
M143.057922,437.305603 
	C143.068863,436.320343 143.094315,435.815277 143.593140,435.126282 
	C152.270462,434.942352 160.474442,434.942352 169.108734,434.942352 
	C169.108734,444.174561 169.108734,452.538483 169.108734,460.902435 
	C169.108734,460.902435 169.095993,460.917542 169.105713,460.912750 
	C162.020065,460.952942 154.923874,460.949036 147.829758,461.068939 
	C145.287781,461.111908 143.834457,460.507141 143.793152,457.534393 
	C143.701660,450.949463 143.329910,444.368408 143.057922,437.305603 
z"/>
<path fill="#5368EF" opacity="1.000000" stroke="none" 
	d="
M169.039612,462.409302 
	C169.185776,464.645081 169.084595,467.202179 168.662109,469.898254 
	C168.491287,467.601715 168.641800,465.166199 169.039612,462.409302 
z"/>
<path fill="#FEFEFF" opacity="1.000000" stroke="none" 
	d="
M169.564590,460.968384 
	C169.108734,452.538483 169.108734,444.174561 169.108734,434.942352 
	C160.474442,434.942352 152.270462,434.942352 143.647903,434.749695 
	C143.267639,420.634705 143.305969,406.712402 143.314758,391.869080 
	C143.253540,374.020691 143.221878,357.093323 143.281784,339.690613 
	C143.304276,332.099304 143.235199,324.983276 143.220001,317.411011 
	C143.194336,299.296509 143.114777,281.638275 143.155396,263.526306 
	C143.181076,255.740555 143.086578,248.408524 143.049530,240.604156 
	C143.077179,224.073547 143.047363,208.015289 143.141510,191.504288 
	C143.197174,183.192215 143.128891,175.332916 143.060593,167.473602 
	C143.060593,167.473602 142.996857,167.483536 143.464600,167.426300 
	C151.029175,167.322113 158.127716,167.168320 165.222092,167.279358 
	C168.170609,167.325500 169.406052,166.403702 169.279251,163.328812 
	C169.041367,157.559738 169.068069,151.779770 169.226074,145.795471 
	C169.683899,144.560379 169.900375,143.534134 170.116867,142.507904 
	C172.105560,142.480911 174.094269,142.453918 176.637360,142.786530 
	C178.492218,142.984695 179.792694,142.823257 181.093155,142.661835 
	C184.421402,142.410675 187.749664,142.159500 191.519867,141.777863 
	C193.450485,141.750488 194.939133,141.943451 196.427795,141.943756 
	C267.158539,141.958160 337.889282,141.956192 408.620026,141.951508 
	C409.451111,141.951462 410.282166,141.891830 411.573059,141.746002 
	C419.706268,141.722519 427.379669,141.813065 435.520447,141.892731 
	C435.961426,142.061646 435.935028,142.241425 435.886047,143.162262 
	C435.822266,150.364746 435.640106,156.830887 435.856110,163.283707 
	C435.900513,164.609985 437.380402,166.971161 438.287689,167.015060 
	C445.862427,167.381683 453.457977,167.317642 461.069153,167.902557 
	C461.200928,176.259415 461.310822,184.097275 461.301819,192.396576 
	C461.257507,208.966553 461.332062,225.075073 461.259644,241.573059 
	C461.224091,249.240051 461.335510,256.517578 461.318787,264.264099 
	C461.204285,282.519958 461.217957,300.306824 461.144531,318.549072 
	C461.161438,325.652710 461.265472,332.300903 461.281982,339.412781 
	C461.163239,344.355438 461.079742,348.834778 461.110748,353.313324 
	C461.200256,366.240997 461.335876,379.168335 461.349457,392.546753 
	C461.145874,406.999023 461.046265,421.000336 460.946655,435.001648 
	C460.946655,435.001648 461.009155,435.002899 460.550690,435.101318 
	C453.454285,435.217499 446.804047,435.486938 440.182831,435.163025 
	C435.887024,434.952881 434.767914,436.557159 434.962402,440.590454 
	C435.273987,447.051147 435.089722,453.535706 434.875549,460.138367 
	C434.432739,460.562012 434.229431,460.857483 434.026154,461.152985 
	C353.328308,461.126587 272.630463,461.100159 191.227814,460.866943 
	C189.353333,460.811493 188.183655,460.962830 187.013977,461.114136 
	C181.349472,461.087524 175.684952,461.060913 169.564590,460.968384 
M184.360199,192.000000 
	C182.027512,192.000000 179.694824,191.999695 177.362137,192.000046 
	C169.002197,192.001266 169.001389,192.001358 169.001358,200.535370 
	C169.001114,266.855438 169.001205,333.175476 169.001282,399.495544 
	C169.001282,402.661560 169.139755,405.835175 168.966385,408.991638 
	C168.767776,412.607635 170.175766,414.193054 173.894043,414.042511 
	C178.385712,413.860626 182.891724,414.068787 187.389191,413.983917 
	C191.255035,413.911011 193.379059,415.279205 193.044342,419.550781 
	C192.810760,422.531830 192.996643,425.546051 193.000656,428.545441 
	C193.009277,434.991394 193.010727,434.998657 199.611816,434.998871 
	C262.099304,435.000763 324.586823,434.976044 387.074249,435.040771 
	C392.702118,435.046600 398.338043,435.517120 403.954773,435.965210 
	C410.565186,436.492584 412.992340,434.396210 412.999481,427.806854 
	C413.002563,424.974091 413.124542,422.134613 412.971863,419.310120 
	C412.733582,414.903168 414.528564,412.731812 419.097717,412.972900 
	C421.922607,413.122009 424.761780,413.002106 427.594543,412.999664 
	C434.993408,412.993286 434.998962,412.992554 434.999146,405.508118 
	C435.000671,343.853790 434.997070,282.199463 435.013550,220.545151 
	C435.014099,218.555267 435.247375,216.566574 435.314484,214.575378 
	C435.526825,208.273071 435.878052,201.968796 435.838715,195.667389 
	C435.818298,192.394241 434.041046,190.649307 430.349640,190.931824 
	C426.373749,191.236099 422.343933,190.801239 418.360779,191.053894 
	C414.122375,191.322723 412.686340,189.498505 412.953003,185.456024 
	C413.182831,181.971893 413.004700,178.460556 412.999054,174.961258 
	C412.987793,168.016281 412.985535,168.003616 406.063049,168.003204 
	C347.408142,167.999710 288.753204,168.001205 230.098282,168.001221 
	C219.433746,168.001221 208.762894,168.217529 198.107498,167.905350 
	C193.165146,167.760559 191.549911,169.589218 191.939941,174.299026 
	C192.241470,177.939972 192.007278,181.625916 191.998428,185.291824 
	C191.982437,191.905731 191.978424,191.905716 184.360199,192.000000 
z"/>
<path fill="#9C69EC" opacity="1.000000" stroke="none" 
	d="
M461.047272,167.383530 
	C453.457977,167.317642 445.862427,167.381683 438.287689,167.015060 
	C437.380402,166.971161 435.900513,164.609985 435.856110,163.283707 
	C435.640106,156.830887 435.822266,150.364746 435.915161,143.433289 
	C443.499634,142.642136 451.032196,142.193604 458.565521,142.180954 
	C459.392944,142.179565 460.892242,144.655304 460.941498,146.023102 
	C461.186371,152.826324 461.049988,159.643295 461.037933,166.937897 
	C461.028015,167.420380 461.047272,167.383530 461.047272,167.383530 
z"/>
<path fill="#9C68EC" opacity="1.000000" stroke="none" 
	d="
M461.069153,167.902557 
	C461.047272,167.383530 461.028015,167.420380 461.015991,167.434296 
	C467.820862,167.358398 474.642426,167.390305 481.453003,167.132965 
	C485.513519,166.979538 484.933014,169.685455 485.045715,172.561279 
	C485.021545,178.997650 484.956757,185.006073 484.395325,191.494675 
	C476.406006,191.961609 468.913330,191.948380 461.420715,191.935120 
	C461.310822,184.097275 461.200928,176.259415 461.069153,167.902557 
z"/>
<path fill="#445FF6" opacity="1.000000" stroke="none" 
	d="
M435.115051,460.010193 
	C435.089722,453.535706 435.273987,447.051147 434.962402,440.590454 
	C434.767914,436.557159 435.887024,434.952881 440.182831,435.163025 
	C446.804047,435.486938 453.454285,435.217499 460.546936,435.070312 
	C461.042877,438.652008 461.084106,442.363190 461.201447,446.529663 
	C461.198425,450.280182 460.929047,453.584900 461.093475,456.867950 
	C461.259338,460.178741 459.874481,461.160126 456.727203,461.086029 
	C450.130249,460.930664 443.526489,461.065430 436.382202,460.867432 
	C435.696716,460.327728 435.455444,460.113190 435.115051,460.010193 
z"/>
<path fill="#8190F2" opacity="1.000000" stroke="none" 
	d="
M434.875549,460.138367 
	C435.455444,460.113190 435.696716,460.327728 435.913574,460.893402 
	C435.988281,461.132965 435.979034,461.612335 435.942566,461.850220 
	C435.396149,461.915405 434.886200,461.742737 434.201233,461.361511 
	C434.229431,460.857483 434.432739,460.562012 434.875549,460.138367 
z"/>
<path fill="#9C68EC" opacity="1.000000" stroke="none" 
	d="
M168.984741,146.004333 
	C169.068069,151.779770 169.041367,157.559738 169.279251,163.328812 
	C169.406052,166.403702 168.170609,167.325500 165.222092,167.279358 
	C158.127716,167.168320 151.029175,167.322113 143.471741,167.457764 
	C143.054642,161.677460 143.098114,155.808456 143.111053,149.472687 
	C143.387146,141.921997 143.944000,141.820999 151.018845,142.451462 
	C156.354019,142.926895 161.789566,142.276001 167.597260,142.067902 
	C168.014084,142.009338 167.988327,141.986847 168.023804,142.333252 
	C168.367752,143.787888 168.676239,144.896103 168.984741,146.004333 
z"/>
<path fill="#4760F5" opacity="1.000000" stroke="none" 
	d="
M142.617523,167.590637 
	C143.128891,175.332916 143.197174,183.192215 142.671112,191.479248 
	C134.776321,191.824234 127.475883,191.741501 120.175446,191.658783 
	C120.126846,188.398926 120.078247,185.139099 119.945862,181.433350 
	C119.934418,177.015244 120.006760,173.043060 120.514969,168.524902 
	C125.302895,167.799942 129.654953,167.620941 134.007004,167.441956 
	C136.729477,167.530533 139.451965,167.619110 142.617523,167.590637 
z"/>
<path fill="#C3C1F4" opacity="1.000000" stroke="none" 
	d="
M133.831818,167.125671 
	C129.654953,167.620941 125.302895,167.799942 120.495987,168.072449 
	C124.218124,164.085373 129.002396,166.099945 133.831818,167.125671 
z"/>
<path fill="#9B68EC" opacity="1.000000" stroke="none" 
	d="
M143.190231,340.165924 
	C143.221878,357.093323 143.253540,374.020691 143.215607,391.399292 
	C135.777863,391.896301 128.409683,391.942047 120.587624,392.020935 
	C120.091438,386.013184 120.049156,379.972260 119.986664,373.462708 
	C119.996666,362.294830 120.026886,351.595581 120.541252,340.457550 
	C128.413681,340.067841 135.801956,340.116882 143.190231,340.165924 
z"/>
<path fill="#435EF6" opacity="1.000000" stroke="none" 
	d="
M143.281784,339.690613 
	C135.801956,340.116882 128.413681,340.067841 120.568695,339.986877 
	C120.037498,336.267914 119.962997,332.580841 119.811172,328.437134 
	C119.832893,324.981110 119.931953,321.981720 120.517296,318.493286 
	C128.391098,317.958557 135.778625,317.912903 143.166138,317.867279 
	C143.235199,324.983276 143.304276,332.099304 143.281784,339.690613 
z"/>
<path fill="#9C81F4" opacity="1.000000" stroke="none" 
	d="
M461.301819,192.396576 
	C468.913330,191.948380 476.406006,191.961609 484.346680,191.956497 
	C484.863647,199.644531 484.932587,207.350906 485.024170,215.524719 
	C484.989136,224.083832 484.931396,232.175507 484.362793,240.693237 
	C476.370148,241.140732 468.888367,241.162170 461.406616,241.183609 
	C461.332062,225.075073 461.257507,208.966553 461.301819,192.396576 
z"/>
<path fill="#B6B4EA" opacity="1.000000" stroke="none" 
	d="
M510.530945,265.969421 
	C510.942841,277.895325 511.008850,289.834595 510.962830,301.773376 
	C510.943085,306.896362 509.593567,307.640808 504.761353,306.552917 
	C501.906342,305.910095 498.829346,306.329254 495.892609,305.954132 
	C492.502808,305.521149 489.157532,304.739563 485.396912,303.584351 
	C484.912292,289.944489 484.823700,276.829620 484.783997,263.424255 
	C484.926208,262.752472 485.019501,262.371185 485.112793,261.989868 
	C487.542633,262.326569 489.980408,262.614899 492.400787,263.009583 
	C498.317993,263.974426 504.227203,264.988373 510.530945,265.969421 
z"/>
<path fill="#4760F5" opacity="1.000000" stroke="none" 
	d="
M485.052002,261.525299 
	C485.019501,262.371185 484.926208,262.752472 484.342468,263.483734 
	C476.383636,263.820831 468.915314,263.807983 461.446960,263.795105 
	C461.335510,256.517578 461.224091,249.240051 461.259644,241.573059 
	C468.888367,241.162170 476.370148,241.140732 484.294861,241.171417 
	C484.822296,247.835922 484.906799,254.448334 485.052002,261.525299 
z"/>
<path fill="#445FF6" opacity="1.000000" stroke="none" 
	d="
M461.419922,434.999268 
	C461.046265,421.000336 461.145874,406.999023 461.614197,392.542664 
	C462.331665,392.026855 462.680420,391.966064 463.493774,391.940002 
	C470.934204,392.034698 477.910004,392.094635 484.885834,392.154602 
	C484.922729,397.790375 484.959656,403.426117 485.040588,409.527405 
	C485.042908,416.936249 484.870148,423.882355 485.017609,430.821716 
	C485.086090,434.045746 483.995056,435.230408 480.741211,435.123291 
	C474.463928,434.916626 468.176453,435.021332 461.419922,434.999268 
z"/>
<path fill="#9A82F4" opacity="1.000000" stroke="none" 
	d="
M461.318787,264.264099 
	C468.915314,263.807983 476.383636,263.820831 484.293549,263.774200 
	C484.823700,276.829620 484.912292,289.944489 485.013794,303.527435 
	C485.000427,308.387054 484.974121,312.778595 484.461426,317.580322 
	C476.393921,318.024841 468.812805,318.059265 461.231628,318.093689 
	C461.217957,300.306824 461.204285,282.519958 461.318787,264.264099 
z"/>
<path fill="#9C68EC" opacity="1.000000" stroke="none" 
	d="
M463.029205,391.905273 
	C462.680420,391.966064 462.331665,392.026855 461.718140,392.091736 
	C461.335876,379.168335 461.200256,366.240997 461.110748,353.313324 
	C461.079742,348.834778 461.163239,344.355438 461.563538,339.409119 
	C462.304291,339.003113 462.675903,339.064484 463.369598,339.373474 
	C470.766754,339.760834 477.841888,339.900513 484.916992,340.040222 
	C484.916992,340.040222 484.967285,340.519440 485.001282,340.757996 
	C485.022827,352.351288 485.010437,363.706024 485.014648,375.528931 
	C485.003998,380.674988 484.976746,385.352875 484.473938,390.506042 
	C477.008667,391.289276 470.018951,391.597260 463.029205,391.905273 
z"/>
<path fill="#445FF6" opacity="1.000000" stroke="none" 
	d="
M463.047546,339.125854 
	C462.675903,339.064484 462.304291,339.003113 461.651062,338.945435 
	C461.265472,332.300903 461.161438,325.652710 461.144531,318.549103 
	C468.812805,318.059265 476.393921,318.024841 484.429932,318.050964 
	C484.893616,324.717255 484.902374,331.323090 484.432373,338.433167 
	C476.984924,339.000214 470.016235,339.063019 463.047546,339.125854 
z"/>
<path fill="#9A82F4" opacity="1.000000" stroke="none" 
	d="
M463.369598,339.373474 
	C470.016235,339.063019 476.984924,339.000214 484.407471,338.891205 
	C484.885132,339.043396 484.908936,339.241760 484.924866,339.740173 
	C477.841888,339.900513 470.766754,339.760834 463.369598,339.373474 
z"/>
<path fill="#9A7FF4" opacity="1.000000" stroke="none" 
	d="
M143.220016,317.411011 
	C135.778625,317.912903 128.391098,317.958557 120.544304,318.045532 
	C120.061920,307.703278 120.038803,297.319641 120.000465,286.467407 
	C120.040871,278.896515 120.096497,271.794250 120.662155,264.262207 
	C128.459869,263.881653 135.747543,263.930847 143.035217,263.980011 
	C143.114777,281.638275 143.194336,299.296509 143.220016,317.411011 
z"/>
<path fill="#9A82F4" opacity="1.000000" stroke="none" 
	d="
M463.493774,391.940002 
	C470.018951,391.597260 477.008667,391.289276 484.457764,390.969177 
	C484.923401,391.156647 484.929688,391.356262 484.910889,391.855255 
	C477.910004,392.094635 470.934204,392.034698 463.493774,391.940002 
z"/>
<path fill="#4760F5" opacity="1.000000" stroke="none" 
	d="
M143.155396,263.526306 
	C135.747543,263.930847 128.459869,263.881653 120.733521,263.781708 
	C120.114258,262.072815 119.933670,260.414673 119.676468,258.416870 
	C119.764969,252.789581 119.930069,247.501907 120.576546,241.726837 
	C128.369308,241.185104 135.680710,241.130798 142.992096,241.076508 
	C143.086578,248.408524 143.181076,255.740555 143.155396,263.526306 
z"/>
<path fill="#C0B0D0" opacity="1.000000" stroke="none" 
	d="
M143.049530,240.604156 
	C135.680710,241.130798 128.369308,241.185104 120.604691,241.289490 
	C120.430107,235.867096 120.708763,230.394623 120.974770,224.457611 
	C120.649170,216.614059 120.336220,209.235092 120.016144,201.428665 
	C120.032547,198.205444 120.056084,195.409683 120.127533,192.136353 
	C127.475883,191.741501 134.776321,191.824234 142.547165,191.932007 
	C143.047363,208.015289 143.077179,224.073547 143.049530,240.604156 
z"/>
<path fill="#8190F2" opacity="1.000000" stroke="none" 
	d="
M187.243378,461.337585 
	C188.183655,460.962830 189.353333,460.811493 190.758759,460.866669 
	C189.820587,461.235809 188.646683,461.398407 187.243378,461.337585 
z"/>
<path fill="#E7DFFC" opacity="1.000000" stroke="none" 
	d="
M180.691513,142.503296 
	C179.792694,142.823257 178.492218,142.984695 177.049652,142.898529 
	C178.034973,142.548889 179.162430,142.446823 180.691513,142.503296 
z"/>
<path fill="#E7DFFC" opacity="1.000000" stroke="none" 
	d="
M169.226074,145.795471 
	C168.676239,144.896103 168.367752,143.787888 168.011658,142.321167 
	C168.450714,142.053818 168.937363,142.144974 169.770447,142.372009 
	C169.900375,143.534134 169.683899,144.560379 169.226074,145.795471 
z"/>
<path fill="#F9F8FB" opacity="1.000000" stroke="none" 
	d="
M184.835541,192.000000 
	C191.978424,191.905716 191.982437,191.905731 191.998428,185.291824 
	C192.007278,181.625916 192.241470,177.939972 191.939941,174.299026 
	C191.549911,169.589218 193.165146,167.760559 198.107498,167.905350 
	C208.762894,168.217529 219.433746,168.001221 230.098282,168.001221 
	C288.753204,168.001205 347.408142,167.999710 406.063049,168.003204 
	C412.985535,168.003616 412.987793,168.016281 412.999054,174.961258 
	C413.004700,178.460556 413.182831,181.971893 412.953003,185.456024 
	C412.686340,189.498505 414.122375,191.322723 418.360779,191.053894 
	C422.343933,190.801239 426.373749,191.236099 430.349640,190.931824 
	C434.041046,190.649307 435.818298,192.394241 435.838715,195.667389 
	C435.878052,201.968796 435.526825,208.273071 435.314484,214.575378 
	C435.247375,216.566574 435.014099,218.555267 435.013550,220.545151 
	C434.997070,282.199463 435.000671,343.853790 434.999146,405.508118 
	C434.998962,412.992554 434.993408,412.993286 427.594543,412.999664 
	C424.761780,413.002106 421.922607,413.122009 419.097717,412.972900 
	C414.528564,412.731812 412.733582,414.903168 412.971863,419.310120 
	C413.124542,422.134613 413.002563,424.974091 412.999481,427.806854 
	C412.992340,434.396210 410.565186,436.492584 403.954773,435.965210 
	C398.338043,435.517120 392.702118,435.046600 387.074249,435.040771 
	C324.586823,434.976044 262.099304,435.000763 199.611816,434.998871 
	C193.010727,434.998657 193.009277,434.991394 193.000656,428.545441 
	C192.996643,425.546051 192.810760,422.531830 193.044342,419.550781 
	C193.379059,415.279205 191.255035,413.911011 187.389191,413.983917 
	C182.891724,414.068787 178.385712,413.860626 173.894043,414.042511 
	C170.175766,414.193054 168.767776,412.607635 168.966385,408.991638 
	C169.139755,405.835175 169.001282,402.661560 169.001282,399.495544 
	C169.001205,333.175476 169.001114,266.855438 169.001358,200.535370 
	C169.001389,192.001358 169.002197,192.001266 177.362137,192.000046 
	C179.694824,191.999695 182.027512,192.000000 184.835541,192.000000 
M327.088867,339.048553 
	C327.093292,332.352020 327.097687,325.655457 327.558777,318.336304 
	C327.396881,312.593750 327.234985,306.851227 327.143738,300.159882 
	C327.114471,293.074158 327.085205,285.988403 327.145966,277.980927 
	C327.139069,272.026581 327.249908,266.067993 327.034363,260.121216 
	C326.986359,258.796234 325.789154,256.381805 325.123291,256.382599 
	C317.106506,256.391998 309.090210,256.761536 300.127350,257.056671 
	C286.371582,257.058441 272.615326,257.119781 258.860352,257.015961 
	C255.801056,256.992859 254.237335,257.747467 254.382446,261.169098 
	C254.634766,267.119171 254.582245,273.082184 254.338242,279.923065 
	C254.338242,286.867859 254.338242,293.812653 254.338242,301.417999 
	C262.203003,301.417999 269.505829,301.417999 276.779388,302.302368 
	C276.811523,325.712189 276.738525,349.123047 276.970520,372.530884 
	C277.013428,376.860626 275.484161,377.920135 271.505737,377.714813 
	C265.964935,377.428833 260.398346,377.642822 254.615143,377.642822 
	C254.615143,384.791595 254.615143,390.904510 254.326843,397.914459 
	C254.299545,403.235077 254.155670,408.559448 254.328674,413.873566 
	C254.370773,415.166931 255.454468,416.426392 256.873810,417.957367 
	C258.575287,417.976868 260.276794,417.996368 262.893585,418.213226 
	C267.274994,418.147217 271.656372,418.081177 276.951080,418.204102 
	C285.292206,418.027313 293.633362,417.850525 302.900574,417.842194 
	C317.023712,417.858246 331.147491,417.809692 345.269531,417.941528 
	C348.319275,417.969971 349.373322,416.901062 349.277863,413.892731 
	C349.098724,408.248474 349.201355,402.595276 349.614380,396.267975 
	C349.697083,391.319427 349.723969,386.369080 349.885742,381.423126 
	C349.968597,378.891022 348.941132,377.960632 346.393829,377.890045 
	C339.979340,377.712219 333.571838,377.282867 327.141846,376.021179 
	C327.099091,369.995758 327.056335,363.970337 327.104492,357.024048 
	C327.062683,351.341980 327.020905,345.659912 327.088867,339.048553 
M276.764587,213.968307 
	C276.733521,220.121735 276.749268,226.275909 276.647980,232.428192 
	C276.608582,234.819946 277.267792,236.198151 279.990875,236.126831 
	C287.295227,235.935623 294.602905,235.871964 302.845795,235.912537 
	C309.472137,235.922852 316.104431,235.768829 322.722382,236.009781 
	C326.266357,236.138809 327.320282,234.826523 327.216461,231.416733 
	C327.029938,225.294708 327.228302,219.160980 327.724640,212.341446 
	C327.770691,206.890686 328.052917,201.425720 327.726105,195.997406 
	C327.621216,194.255127 325.994507,191.211456 324.916656,191.144775 
	C317.413300,190.680359 309.871216,190.842529 301.344269,190.661362 
	C294.526978,190.698318 287.708374,190.826813 280.893036,190.728561 
	C278.043701,190.687500 276.574554,191.410675 276.691193,194.609436 
	C276.915070,200.750870 276.867828,206.902206 276.764587,213.968307 
M368.198181,254.999207 
	C373.116333,253.616592 375.774872,254.865753 375.169006,260.580261 
	C374.843506,263.650635 374.696289,266.830505 375.159119,269.855347 
	C375.387390,271.347137 377.004547,273.575500 378.295929,273.811035 
	C393.910431,276.659088 396.769165,274.112091 395.996948,258.587982 
	C395.980377,258.255402 396.121490,257.783417 395.951385,257.611115 
	C394.733521,256.377716 393.599579,254.430283 392.166290,254.160934 
	C388.119049,253.400299 383.943298,253.108704 379.813660,253.065552 
	C376.153473,253.027298 375.774506,251.404297 376.316925,248.306320 
	C376.856323,245.225800 376.878113,242.041763 376.966583,238.898605 
	C377.065033,235.400223 375.402283,233.732117 371.741882,233.960022 
	C368.588928,234.156342 365.400757,234.183090 362.252075,233.955063 
	C358.050995,233.650818 355.955811,235.562729 355.672974,239.588455 
	C355.503143,242.005219 355.774261,244.460892 355.506714,246.861130 
	C354.971924,251.659439 356.562622,254.094681 361.324951,254.824875 
	C363.282593,255.125061 365.312195,254.955933 368.198181,254.999207 
M220.937469,241.784073 
	C220.754868,235.891632 217.424896,234.284088 212.055222,234.939835 
	C209.267532,235.280273 206.399857,235.105392 203.576721,234.977615 
	C200.610397,234.843369 199.274170,236.348816 199.065536,239.075485 
	C198.938858,240.730789 198.987762,242.401947 199.004959,244.065475 
	C199.146286,257.730499 197.277603,255.880035 210.930984,255.988098 
	C219.122147,256.052917 219.104828,255.997833 220.066040,248.032898 
	C220.283676,246.229492 220.671585,244.446655 220.937469,241.784073 
M206.578461,222.001068 
	C206.911484,222.001083 207.244522,222.001114 207.577545,222.001114 
	C220.004898,222.001343 220.004913,222.001343 220.000626,209.377090 
	C219.998123,202.002441 219.998108,202.002441 212.821411,201.999573 
	C198.977737,201.994034 198.977753,201.994034 198.999619,215.554962 
	C199.009949,221.963745 199.009933,221.963745 206.578461,222.001068 
z"/>
<path fill="#4760F5" opacity="1.000000" stroke="none" 
	d="
M254.615143,397.017426 
	C254.615143,390.904510 254.615143,384.791595 254.615143,377.642822 
	C260.398346,377.642822 265.964935,377.428833 271.505737,377.714813 
	C275.484161,377.920135 277.013428,376.860626 276.970520,372.530884 
	C276.738525,349.123047 276.811523,325.712189 276.897888,301.422974 
	C277.323029,294.258514 277.786835,287.972839 277.761261,281.689148 
	C277.757599,280.781891 275.430603,279.155273 274.130829,279.105133 
	C267.648529,278.855164 261.150208,279.020569 254.657532,279.039764 
	C254.582245,273.082184 254.634766,267.119171 254.382446,261.169098 
	C254.237335,257.747467 255.801056,256.992859 258.860352,257.015961 
	C272.615326,257.119781 286.371582,257.058441 300.756348,257.427307 
	C301.646942,264.817719 301.908569,271.837524 302.118958,279.336273 
	C302.119415,286.935486 302.171143,294.055756 302.129639,301.620300 
	C302.074066,307.667358 302.111725,313.270081 302.106750,319.347534 
	C302.184113,326.276642 302.304047,332.730988 302.290466,339.623199 
	C302.193542,346.007874 302.230133,351.954651 302.203613,358.372314 
	C302.083771,363.629700 302.190430,368.425537 301.916809,373.199615 
	C301.709503,376.816772 302.933411,378.157990 306.674408,378.103577 
	C312.055298,378.025269 317.444977,378.550262 322.374146,378.848999 
	C315.356201,378.964111 308.795074,379.047943 301.751709,379.096893 
	C297.276611,379.038116 293.283051,378.955811 289.290924,379.000885 
	C275.180756,379.160187 277.107544,377.102539 276.969177,391.015350 
	C276.964203,391.514496 276.934662,392.016357 276.973694,392.512451 
	C277.223785,395.693085 275.787170,397.046082 272.583893,396.996338 
	C266.595856,396.903351 260.604889,396.999786 254.615143,397.017426 
z"/>
<path fill="#9C69EC" opacity="1.000000" stroke="none" 
	d="
M349.186798,396.945801 
	C349.201355,402.595276 349.098724,408.248474 349.277863,413.892731 
	C349.373322,416.901062 348.319275,417.969971 345.269531,417.941528 
	C331.147491,417.809692 317.023712,417.858246 302.457764,417.313141 
	C302.137085,410.128052 302.259247,403.471985 302.825256,396.838379 
	C318.575012,396.889160 333.880920,396.917480 349.186798,396.945801 
z"/>
<path fill="#592ED5" opacity="1.000000" stroke="none" 
	d="
M254.470993,397.465942 
	C260.604889,396.999786 266.595856,396.903351 272.583893,396.996338 
	C275.787170,397.046082 277.223785,395.693085 276.973694,392.512451 
	C276.934662,392.016357 276.964203,391.514496 276.969177,391.015350 
	C277.107544,377.102539 275.180756,379.160187 289.290924,379.000885 
	C293.283051,378.955811 297.276611,379.038116 301.722443,379.551575 
	C302.118530,385.372437 302.061707,390.703674 301.565247,396.026917 
	C297.001038,396.331116 292.879120,396.863098 288.751343,396.912811 
	C277.965240,397.042633 278.117615,396.961975 277.875793,407.682159 
	C277.797821,411.138550 276.679932,414.571503 276.037781,418.015167 
	C271.656372,418.081177 267.274994,418.147217 262.190613,417.859680 
	C259.678162,417.571228 257.868713,417.636322 256.059235,417.701447 
	C255.454468,416.426392 254.370773,415.166931 254.328674,413.873566 
	C254.155670,408.559448 254.299545,403.235077 254.470993,397.465942 
z"/>
<path fill="#C0AFD2" opacity="1.000000" stroke="none" 
	d="
M302.004883,396.034943 
	C302.061707,390.703674 302.118530,385.372437 302.204651,379.586487 
	C308.795074,379.047943 315.356201,378.964111 322.741699,378.900574 
	C324.764557,378.265350 325.963043,377.609833 327.161530,376.954315 
	C333.571838,377.282867 339.979340,377.712219 346.393829,377.890045 
	C348.941132,377.960632 349.968597,378.891022 349.885742,381.423126 
	C349.723969,386.369080 349.697083,391.319427 349.400574,396.606903 
	C333.880920,396.917480 318.575012,396.889160 302.738251,396.639526 
	C302.207367,396.418274 302.004883,396.034943 302.004883,396.034943 
z"/>
<path fill="#FEFEFF" opacity="1.000000" stroke="none" 
	d="
M367.753601,254.999756 
	C365.312195,254.955933 363.282593,255.125061 361.324951,254.824875 
	C356.562622,254.094681 354.971924,251.659439 355.506714,246.861130 
	C355.774261,244.460892 355.503143,242.005219 355.672974,239.588455 
	C355.955811,235.562729 358.050995,233.650818 362.252075,233.955063 
	C365.400757,234.183090 368.588928,234.156342 371.741882,233.960022 
	C375.402283,233.732117 377.065033,235.400223 376.966583,238.898605 
	C376.878113,242.041763 376.856323,245.225800 376.316925,248.306320 
	C375.774506,251.404297 376.153473,253.027298 379.813660,253.065552 
	C383.943298,253.108704 388.119049,253.400299 392.166290,254.160934 
	C393.599579,254.430283 394.733521,256.377716 395.951385,257.611115 
	C396.121490,257.783417 395.980377,258.255402 395.996948,258.587982 
	C396.769165,274.112091 393.910431,276.659088 378.295929,273.811035 
	C377.004547,273.575500 375.387390,271.347137 375.159119,269.855347 
	C374.696289,266.830505 374.843506,263.650635 375.169006,260.580261 
	C375.774872,254.865753 373.116333,253.616592 367.753601,254.999756 
z"/>
<path fill="#C0AFD2" opacity="1.000000" stroke="none" 
	d="
M302.341522,190.803864 
	C309.871216,190.842529 317.413300,190.680359 324.916656,191.144775 
	C325.994507,191.211456 327.621216,194.255127 327.726105,195.997406 
	C328.052917,201.425720 327.770691,206.890686 327.001709,212.677597 
	C318.267639,212.959900 310.256500,212.906052 302.161041,212.844025 
	C302.076752,212.835831 301.933868,212.926758 301.958191,212.467697 
	C301.975281,205.366226 301.968048,198.723816 302.050171,191.760284 
	C302.206879,191.227386 302.274200,191.015625 302.341522,190.803864 
z"/>
<path fill="#C0AFD2" opacity="1.000000" stroke="none" 
	d="
M302.170197,278.857300 
	C301.908569,271.837524 301.646942,264.817719 301.229553,257.417542 
	C309.090210,256.761536 317.106506,256.391998 325.123291,256.382599 
	C325.789154,256.381805 326.986359,258.796234 327.034363,260.121216 
	C327.249908,266.067993 327.139069,272.026581 326.627686,278.458191 
	C318.129669,278.909424 310.149933,278.883362 302.170197,278.857300 
z"/>
<path fill="#9C69EC" opacity="1.000000" stroke="none" 
	d="
M302.245331,212.852219 
	C310.256500,212.906052 318.267639,212.959900 326.772339,213.022949 
	C327.228302,219.160980 327.029938,225.294708 327.216461,231.416733 
	C327.320282,234.826523 326.266357,236.138809 322.722382,236.009781 
	C316.104431,235.768829 309.472137,235.922852 302.395569,235.385498 
	C302.045319,227.523041 302.145325,220.187637 302.245331,212.852219 
z"/>
<path fill="#4760F5" opacity="1.000000" stroke="none" 
	d="
M302.161041,212.844025 
	C302.145325,220.187637 302.045319,227.523041 301.927277,235.308044 
	C294.602905,235.871964 287.295227,235.935623 279.990875,236.126831 
	C277.267792,236.198151 276.608582,234.819946 276.647980,232.428192 
	C276.749268,226.275909 276.733521,220.121735 277.323120,213.492126 
	C285.326721,212.978943 292.771790,212.941940 300.502167,212.909973 
	C301.169617,212.918915 301.551758,212.922836 301.933868,212.926758 
	C301.933868,212.926758 302.076752,212.835831 302.161041,212.844025 
z"/>
<path fill="#9B68EC" opacity="1.000000" stroke="none" 
	d="
M302.118958,279.336273 
	C310.149933,278.883362 318.129669,278.909424 326.582672,278.919067 
	C327.085205,285.988403 327.114471,293.074158 326.633423,300.621948 
	C318.156372,301.114655 310.189606,301.145325 302.222900,301.175964 
	C302.171143,294.055756 302.119415,286.935486 302.118958,279.336273 
z"/>
<path fill="#592ED5" opacity="1.000000" stroke="none" 
	d="
M254.497894,279.481415 
	C261.150208,279.020569 267.648529,278.855164 274.130829,279.105133 
	C275.430603,279.155273 277.757599,280.781891 277.761261,281.689148 
	C277.786835,287.972839 277.323029,294.258514 276.912506,300.980774 
	C269.505829,301.417999 262.203003,301.417999 254.338242,301.417999 
	C254.338242,293.812653 254.338242,286.867859 254.497894,279.481415 
z"/>
<path fill="#9B68EC" opacity="1.000000" stroke="none" 
	d="
M300.216827,212.904938 
	C292.771790,212.941940 285.326721,212.978943 277.407349,213.032684 
	C276.867828,206.902206 276.915070,200.750870 276.691193,194.609436 
	C276.574554,191.410675 278.043701,190.687500 280.893036,190.728561 
	C287.708374,190.826813 294.526978,190.698318 301.842896,190.732605 
	C302.274200,191.015625 302.206879,191.227386 301.808136,192.042831 
	C301.056763,199.399323 300.636810,206.152130 300.216827,212.904938 
z"/>
<path fill="#445FF6" opacity="1.000000" stroke="none" 
	d="
M301.565247,396.026917 
	C302.004883,396.034943 302.207367,396.418274 302.294373,396.617126 
	C302.259247,403.471985 302.137085,410.128052 301.994690,417.228912 
	C293.633362,417.850525 285.292206,418.027313 276.494446,418.109619 
	C276.679932,414.571503 277.797821,411.138550 277.875793,407.682159 
	C278.117615,396.961975 277.965240,397.042633 288.751343,396.912811 
	C292.879120,396.863098 297.001038,396.331116 301.565247,396.026917 
z"/>
<path fill="#9868EC" opacity="1.000000" stroke="none" 
	d="
M327.151672,376.487732 
	C325.963043,377.609833 324.764557,378.265350 323.198486,378.869293 
	C317.444977,378.550262 312.055298,378.025269 306.674408,378.103577 
	C302.933411,378.157990 301.709503,376.816772 301.916809,373.199615 
	C302.190430,368.425537 302.083771,363.629700 302.646271,358.378845 
	C311.105835,357.924652 319.059692,357.934784 327.013550,357.944946 
	C327.056335,363.970337 327.099091,369.995758 327.151672,376.487732 
z"/>
<path fill="#9868EC" opacity="1.000000" stroke="none" 
	d="
M302.423981,339.185333 
	C302.304047,332.730988 302.184113,326.276642 302.560822,319.373199 
	C311.072357,318.935699 319.087219,318.947296 327.102081,318.958923 
	C327.097687,325.655457 327.093292,332.352020 326.648804,339.362244 
	C318.280457,339.512390 310.352234,339.348846 302.423981,339.185333 
z"/>
<path fill="#BAACD2" opacity="1.000000" stroke="none" 
	d="
M302.290466,339.623199 
	C310.352234,339.348846 318.280457,339.512390 326.593933,339.826904 
	C327.020905,345.659912 327.062683,351.341980 327.059021,357.484497 
	C319.059692,357.934784 311.105835,357.924652 302.709351,357.907990 
	C302.230133,351.954651 302.193542,346.007874 302.290466,339.623199 
z"/>
<path fill="#C0AFD2" opacity="1.000000" stroke="none" 
	d="
M327.330444,318.647614 
	C319.087219,318.947296 311.072357,318.935699 302.603455,318.898438 
	C302.111725,313.270081 302.074066,307.667358 302.129639,301.620300 
	C310.189606,301.145325 318.156372,301.114655 326.598083,301.096313 
	C327.234985,306.851227 327.396881,312.593750 327.330444,318.647614 
z"/>
<path fill="#FEFEFF" opacity="1.000000" stroke="none" 
	d="
M220.959290,242.219208 
	C220.671585,244.446655 220.283676,246.229492 220.066040,248.032898 
	C219.104828,255.997833 219.122147,256.052917 210.930984,255.988098 
	C197.277603,255.880035 199.146286,257.730499 199.004959,244.065475 
	C198.987762,242.401947 198.938858,240.730789 199.065536,239.075485 
	C199.274170,236.348816 200.610397,234.843369 203.576721,234.977615 
	C206.399857,235.105392 209.267532,235.280273 212.055222,234.939835 
	C217.424896,234.284088 220.754868,235.891632 220.959290,242.219208 
z"/>
<path fill="#FEFEFF" opacity="1.000000" stroke="none" 
	d="
M206.095001,222.001038 
	C199.009933,221.963745 199.009949,221.963745 198.999619,215.554962 
	C198.977753,201.994034 198.977737,201.994034 212.821411,201.999573 
	C219.998108,202.002441 219.998123,202.002441 220.000626,209.377090 
	C220.004913,222.001343 220.004898,222.001343 207.577545,222.001114 
	C207.244522,222.001114 206.911484,222.001083 206.095001,222.001038 
z"/>
<path fill="#4760F5" opacity="1.000000" stroke="none" 
	d="
M256.466522,417.829407 
	C257.868713,417.636322 259.678162,417.571228 261.732971,417.760986 
	C260.276794,417.996368 258.575287,417.976868 256.466522,417.829407 
z"/>
<path fill="#592ED5" opacity="1.000000" stroke="none" 
	d="
M300.502167,212.909973 
	C300.636810,206.152130 301.056763,199.399323 301.718781,192.363953 
	C301.968048,198.723816 301.975281,205.366226 301.958191,212.467697 
	C301.551758,212.922836 301.169617,212.918915 300.502167,212.909973 
z"/>
</svg>